<svg width="1252" height="121" viewBox="0 0 1252 121" fill="none" xmlns="http://www.w3.org/2000/svg">
<path d="M1131.13 35.9999H1143.13V47.9999H1131.13V35.9999ZM1131.13 23.9999H1143.13V35.9999H1131.13V23.9999ZM1143.13 23.9999H1155.13V35.9999H1143.13V23.9999ZM1143.13 35.9999H1155.13V47.9999H1143.13V35.9999ZM1143.13 47.9999H1155.13V59.9999H1143.13V47.9999ZM1143.13 59.9999H1155.13V71.9999H1143.13V59.9999ZM1143.13 71.9999H1155.13V83.9999H1143.13V71.9999ZM1131.13 71.9999H1143.13V83.9999H1131.13V71.9999ZM1131.13 59.9999H1143.13V71.9999H1131.13V59.9999ZM1131.13 47.9999H1143.13V59.9999H1131.13V47.9999ZM1131.13 83.9999H1143.13V95.9999H1131.13V83.9999ZM1143.13 83.9999H1155.13V95.9999H1143.13V83.9999ZM1143.13 95.9999H1155.13V108H1143.13V95.9999ZM1143.13 108H1155.13V120H1143.13V108ZM1131.13 108H1143.13V120H1131.13V108ZM1131.13 95.9999H1143.13V108H1131.13V95.9999ZM1179.13 108H1191.13V120H1179.13V108ZM1191.13 108H1203.13V120H1191.13V108ZM1191.13 95.9999H1203.13V108H1191.13V95.9999ZM1191.13 83.9999H1203.13V95.9999H1191.13V83.9999ZM1191.13 71.9999H1203.13V83.9999H1191.13V71.9999ZM1191.13 59.9999H1203.13V71.9999H1191.13V59.9999ZM1191.13 47.9999H1203.13V59.9999H1191.13V47.9999ZM1191.13 35.9999H1203.13V47.9999H1191.13V35.9999ZM1179.13 59.9999H1191.13V71.9999H1179.13V59.9999ZM1179.13 71.9999H1191.13V83.9999H1179.13V71.9999ZM1179.13 83.9999H1191.13V95.9999H1179.13V83.9999ZM1179.13 95.9999H1191.13V108H1179.13V95.9999ZM1179.13 47.9999H1191.13V59.9999H1179.13V47.9999ZM1155.13 35.9999H1167.13V47.9999H1155.13V35.9999ZM1167.13 35.9999H1179.13V47.9999H1167.13V35.9999ZM1179.13 23.9999H1191.13V35.9999H1179.13V23.9999ZM1179.13 35.9999H1191.13V47.9999H1179.13V35.9999ZM1167.13 23.9999H1179.13V35.9999H1167.13V23.9999ZM1227.13 108H1239.13V120H1227.13V108ZM1239.13 108H1251.13V120H1239.13V108ZM1239.13 95.9999H1251.13V108H1239.13V95.9999ZM1239.13 83.9999H1251.13V95.9999H1239.13V83.9999ZM1239.13 71.9999H1251.13V83.9999H1239.13V71.9999ZM1239.13 59.9999H1251.13V71.9999H1239.13V59.9999ZM1239.13 47.9999H1251.13V59.9999H1239.13V47.9999ZM1239.13 35.9999H1251.13V47.9999H1239.13V35.9999ZM1227.13 59.9999H1239.13V71.9999H1227.13V59.9999ZM1227.13 71.9999H1239.13V83.9999H1227.13V71.9999ZM1227.13 83.9999H1239.13V95.9999H1227.13V83.9999ZM1227.13 95.9999H1239.13V108H1227.13V95.9999ZM1227.13 47.9999H1239.13V59.9999H1227.13V47.9999ZM1203.13 35.9999H1215.13V47.9999H1203.13V35.9999ZM1215.13 35.9999H1227.13V47.9999H1215.13V35.9999ZM1227.13 23.9999H1239.13V35.9999H1227.13V23.9999ZM1227.13 35.9999H1239.13V47.9999H1227.13V35.9999ZM1215.13 23.9999H1227.13V35.9999H1215.13V23.9999Z" fill="white"/>
<path d="M1107.1 120H1095.1V108H1107.1V120ZM1107.1 108H1095.1V95.9999H1107.1V108ZM1095.1 108H1083.1V95.9999H1095.1V108ZM1083.1 120H1071.1V108H1083.1V120ZM1071.1 120H1059.1V108H1071.1V120ZM1059.1 120H1047.1V108H1059.1V120ZM1059.1 108H1047.1V95.9999H1059.1V108ZM1071.1 108H1059.1V95.9999H1071.1V108ZM1047.1 108H1035.1V95.9999H1047.1V108ZM1047.1 95.9999H1035.1V83.9999H1047.1V95.9999ZM1047.1 47.9999H1035.1V35.9999H1047.1V47.9999ZM1059.1 47.9999H1047.1V35.9999H1059.1V47.9999ZM1059.1 95.9999H1047.1V83.9999H1059.1V95.9999ZM1071.1 47.9999H1059.1V35.9999H1071.1V47.9999ZM1059.1 35.9999H1047.1V23.9999H1059.1V35.9999ZM1071.1 35.9999H1059.1V23.9999H1071.1V35.9999ZM1083.1 35.9999H1071.1V23.9999H1083.1V35.9999ZM1095.1 35.9999H1083.1V23.9999H1095.1V35.9999ZM1107.1 35.9999H1095.1V23.9999H1107.1V35.9999ZM1107.1 47.9999H1095.1V35.9999H1107.1V47.9999ZM1095.1 47.9999H1083.1V35.9999H1095.1V47.9999ZM1107.1 59.9999H1095.1V47.9999H1107.1V59.9999ZM1119.1 47.9999H1107.1V35.9999H1119.1V47.9999ZM1119.1 59.9999H1107.1V47.9999H1119.1V59.9999ZM1119.1 71.9999H1107.1V59.9999H1119.1V71.9999ZM1119.1 83.9999H1107.1V71.9999H1119.1V83.9999ZM1119.1 95.9999H1107.1V83.9999H1119.1V95.9999ZM1119.1 108H1107.1V95.9999H1119.1V108ZM1107.1 95.9999H1095.1V83.9999H1107.1V95.9999ZM1107.1 83.9999H1095.1V71.9999H1107.1V83.9999ZM1107.1 71.9999H1095.1V59.9999H1107.1V71.9999ZM1083.1 47.9999H1071.1V35.9999H1083.1V47.9999ZM1083.1 108H1071.1V95.9999H1083.1V108ZM1107.1 108H1119.1V120H1107.1V108ZM1083.1 59.9999H1095.1V71.9999H1083.1V59.9999ZM1071.1 59.9999H1083.1V71.9999H1071.1V59.9999ZM1059.1 59.9999H1071.1V71.9999H1059.1V59.9999ZM1047.1 59.9999H1059.1V71.9999H1047.1V59.9999ZM1035.1 71.9999H1047.1V83.9999H1035.1V71.9999ZM1047.1 71.9999H1059.1V83.9999H1047.1V71.9999ZM1083.1 71.9999H1095.1V83.9999H1083.1V71.9999ZM1071.1 71.9999H1083.1V83.9999H1071.1V71.9999ZM1059.1 71.9999H1071.1V83.9999H1059.1V71.9999Z" fill="white"/>
<path d="M963.066 23.9999H975.066V35.9999H963.066V23.9999ZM951.066 23.9999H963.066V35.9999H951.066V23.9999ZM951.066 35.9999H963.066V47.9999H951.066V35.9999ZM963.066 35.9999H975.066V47.9999H963.066V35.9999ZM975.066 23.9999H987.066V35.9999H975.066V23.9999ZM987.066 23.9999H999.066V35.9999H987.066V23.9999ZM999.066 23.9999H1011.07V35.9999H999.066V23.9999ZM999.066 35.9999H1011.07V47.9999H999.066V35.9999ZM987.066 35.9999H999.066V47.9999H987.066V35.9999ZM1011.07 35.9999H1023.07V47.9999H1011.07V35.9999ZM1011.07 47.9999H1023.07V59.9999H1011.07V47.9999ZM1011.07 95.9999H1023.07V108H1011.07V95.9999ZM999.066 95.9999H1011.07V108H999.066V95.9999ZM999.066 47.9999H1011.07V59.9999H999.066V47.9999ZM987.066 95.9999H999.066V108H987.066V95.9999ZM999.066 108H1011.07V120H999.066V108ZM987.066 108H999.066V120H987.066V108ZM975.066 108H987.066V120H975.066V108ZM963.066 108H975.066V120H963.066V108ZM951.066 108H963.066V120H951.066V108ZM951.066 95.9999H963.066V108H951.066V95.9999ZM963.066 95.9999H975.066V108H963.066V95.9999ZM951.066 83.9999H963.066V95.9999H951.066V83.9999ZM939.066 95.9999H951.066V108H939.066V95.9999ZM939.066 83.9999H951.066V95.9999H939.066V83.9999ZM939.066 71.9999H951.066V83.9999H939.066V71.9999ZM939.066 59.9999H951.066V71.9999H939.066V59.9999ZM939.066 47.9999H951.066V59.9999H939.066V47.9999ZM939.066 35.9999H951.066V47.9999H939.066V35.9999ZM951.066 47.9999H963.066V59.9999H951.066V47.9999ZM951.066 59.9999H963.066V71.9999H951.066V59.9999ZM951.066 71.9999H963.066V83.9999H951.066V71.9999ZM975.066 95.9999H987.066V108H975.066V95.9999ZM975.066 35.9999H987.066V47.9999H975.066V35.9999ZM999.066 59.9999H1011.07V71.9999H999.066V59.9999ZM1011.07 59.9999H1023.07V71.9999H1011.07V59.9999ZM963.066 71.9999H975.066V83.9999H963.066V71.9999ZM975.066 71.9999H987.066V83.9999H975.066V71.9999ZM987.066 71.9999H999.066V83.9999H987.066V71.9999ZM999.066 71.9999H1011.07V83.9999H999.066V71.9999ZM1011.07 71.9999H1023.07V83.9999H1011.07V71.9999ZM987.066 59.9999H999.066V71.9999H987.066V59.9999ZM975.066 59.9999H987.066V71.9999H975.066V59.9999ZM963.066 59.9999H975.066V71.9999H963.066V59.9999Z" fill="white"/>
<path d="M855.066 35.9999H867.066V47.9999H855.066V35.9999ZM855.066 23.9999H867.066V35.9999H855.066V23.9999ZM867.066 23.9999H879.066V35.9999H867.066V23.9999ZM867.066 35.9999H879.066V47.9999H867.066V35.9999ZM867.066 47.9999H879.066V59.9999H867.066V47.9999ZM867.066 59.9999H879.066V71.9999H867.066V59.9999ZM867.066 71.9999H879.066V83.9999H867.066V71.9999ZM855.066 71.9999H867.066V83.9999H855.066V71.9999ZM855.066 59.9999H867.066V71.9999H855.066V59.9999ZM855.066 47.9999H867.066V59.9999H855.066V47.9999ZM855.066 83.9999H867.066V95.9999H855.066V83.9999ZM867.066 83.9999H879.066V95.9999H867.066V83.9999ZM867.066 95.9999H879.066V108H867.066V95.9999ZM867.066 108H879.066V120H867.066V108ZM855.066 108H867.066V120H855.066V108ZM855.066 95.9999H867.066V108H855.066V95.9999ZM879.066 35.9999H891.066V47.9999H879.066V35.9999ZM891.066 35.9999H903.066V47.9999H891.066V35.9999ZM903.066 35.9999H915.066V47.9999H903.066V35.9999ZM903.066 23.9999H915.066V35.9999H903.066V23.9999ZM891.066 23.9999H903.066V35.9999H891.066V23.9999ZM879.066 47.9999H891.066V59.9999H879.066V47.9999ZM915.066 35.9999H927.066V47.9999H915.066V35.9999ZM903.066 47.9999H915.066V59.9999H903.066V47.9999Z" fill="white"/>
<path d="M783.035 23.9999H795.035V35.9999H783.035V23.9999ZM771.035 23.9999H783.035V35.9999H771.035V23.9999ZM771.035 35.9999H783.035V47.9999H771.035V35.9999ZM783.035 35.9999H795.035V47.9999H783.035V35.9999ZM795.035 23.9999H807.035V35.9999H795.035V23.9999ZM807.035 23.9999H819.035V35.9999H807.035V23.9999ZM819.035 23.9999H831.035V35.9999H819.035V23.9999ZM819.035 35.9999H831.035V47.9999H819.035V35.9999ZM807.035 35.9999H819.035V47.9999H807.035V35.9999ZM831.035 35.9999H843.035V47.9999H831.035V35.9999ZM831.035 47.9999H843.035V59.9999H831.035V47.9999ZM831.035 83.9999H843.035V95.9999H831.035V83.9999ZM831.035 95.9999H843.035V108H831.035V95.9999ZM819.035 95.9999H831.035V108H819.035V95.9999ZM819.035 83.9999H831.035V95.9999H819.035V83.9999ZM819.035 47.9999H831.035V59.9999H819.035V47.9999ZM807.035 95.9999H819.035V108H807.035V95.9999ZM819.035 108H831.035V120H819.035V108ZM807.035 108H819.035V120H807.035V108ZM795.035 108H807.035V120H795.035V108ZM783.035 108H795.035V120H783.035V108ZM771.035 108H783.035V120H771.035V108ZM771.035 95.9999H783.035V108H771.035V95.9999ZM783.035 95.9999H795.035V108H783.035V95.9999ZM771.035 83.9999H783.035V95.9999H771.035V83.9999ZM759.035 95.9999H771.035V108H759.035V95.9999ZM759.035 83.9999H771.035V95.9999H759.035V83.9999ZM759.035 71.9999H771.035V83.9999H759.035V71.9999ZM759.035 59.9999H771.035V71.9999H759.035V59.9999ZM759.035 47.9999H771.035V59.9999H759.035V47.9999ZM759.035 35.9999H771.035V47.9999H759.035V35.9999ZM771.035 47.9999H783.035V59.9999H771.035V47.9999ZM771.035 59.9999H783.035V71.9999H771.035V59.9999ZM771.035 71.9999H783.035V83.9999H771.035V71.9999ZM795.035 95.9999H807.035V108H795.035V95.9999ZM795.035 35.9999H807.035V47.9999H795.035V35.9999Z" fill="white"/>
<path d="M735.004 24H747.004V36H735.004V24ZM723.004 24H735.004V36H723.004V24ZM723.004 12H735.004V24H723.004V12ZM735.004 12H747.004V24H735.004V12ZM723.004 0H735.004V12H723.004V0ZM711.004 0H723.004V12H711.004V0ZM711.004 12H723.004V24H711.004V12ZM699.004 12H711.004V24H699.004V12ZM687.004 12H699.004V24H687.004V12ZM687.004 0H699.004V12H687.004V0ZM675.004 0H687.004V12H675.004V0ZM699.004 0H711.004V12H699.004V0ZM675.004 12H687.004V24H675.004V12ZM663.004 12H675.004V24H663.004V12ZM663.004 24H675.004V36H663.004V24ZM675.004 24H687.004V36H675.004V24ZM675.004 36H687.004V48H675.004V36ZM675.004 48H687.004V60H675.004V48ZM663.004 48H675.004V60H663.004V48ZM663.004 36H675.004V48H663.004V36ZM675.004 60H687.004V72H675.004V60ZM687.004 60H699.004V72H687.004V60ZM687.004 48H699.004V60H687.004V48ZM699.004 48H711.004V60H699.004V48ZM711.004 48H723.004V60H711.004V48ZM723.004 48H735.004V60H723.004V48ZM723.004 60H735.004V72H723.004V60ZM711.004 60H723.004V72H711.004V60ZM699.004 60H711.004V72H699.004V60ZM735.004 60H747.004V72H735.004V60ZM735.004 72H747.004V84H735.004V72ZM723.004 72H735.004V84H723.004V72ZM711.004 96H723.004V108H711.004V96ZM723.004 96H735.004V108H723.004V96ZM723.004 84H735.004V96H723.004V84ZM735.004 84H747.004V96H735.004V84ZM735.004 96H747.004V108H735.004V96ZM723.004 108H735.004V120H723.004V108ZM711.004 108H723.004V120H711.004V108ZM699.004 108H711.004V120H699.004V108ZM687.004 108H699.004V120H687.004V108ZM675.004 108H687.004V120H675.004V108ZM675.004 96H687.004V108H675.004V96ZM687.004 96H699.004V108H687.004V96ZM699.004 96H711.004V108H699.004V96ZM663.004 96H675.004V108H663.004V96ZM663.004 84H675.004V96H663.004V84ZM675.004 84H687.004V96H675.004V84Z" fill="white"/>
<path d="M579.004 35.9999H591.004V47.9999H579.004V35.9999ZM579.004 23.9999H591.004V35.9999H579.004V23.9999ZM591.004 23.9999H603.004V35.9999H591.004V23.9999ZM591.004 35.9999H603.004V47.9999H591.004V35.9999ZM591.004 47.9999H603.004V59.9999H591.004V47.9999ZM591.004 59.9999H603.004V71.9999H591.004V59.9999ZM591.004 71.9999H603.004V83.9999H591.004V71.9999ZM579.004 71.9999H591.004V83.9999H579.004V71.9999ZM579.004 59.9999H591.004V71.9999H579.004V59.9999ZM579.004 47.9999H591.004V59.9999H579.004V47.9999ZM579.004 83.9999H591.004V95.9999H579.004V83.9999ZM591.004 83.9999H603.004V95.9999H591.004V83.9999ZM591.004 95.9999H603.004V108H591.004V95.9999ZM591.004 108H603.004V120H591.004V108ZM579.004 108H591.004V120H579.004V108ZM579.004 95.9999H591.004V108H579.004V95.9999ZM603.004 35.9999H615.004V47.9999H603.004V35.9999ZM615.004 35.9999H627.004V47.9999H615.004V35.9999ZM627.004 35.9999H639.004V47.9999H627.004V35.9999ZM627.004 23.9999H639.004V35.9999H627.004V23.9999ZM615.004 23.9999H627.004V35.9999H615.004V23.9999ZM603.004 47.9999H615.004V59.9999H603.004V47.9999ZM639.004 35.9999H651.004V47.9999H639.004V35.9999ZM627.004 47.9999H639.004V59.9999H627.004V47.9999Z" fill="white"/>
<path d="M506.973 23.9999H518.973V35.9999H506.973V23.9999ZM494.973 23.9999H506.973V35.9999H494.973V23.9999ZM494.973 35.9999H506.973V47.9999H494.973V35.9999ZM506.973 35.9999H518.973V47.9999H506.973V35.9999ZM518.973 23.9999H530.973V35.9999H518.973V23.9999ZM530.973 23.9999H542.973V35.9999H530.973V23.9999ZM542.973 23.9999H554.973V35.9999H542.973V23.9999ZM542.973 35.9999H554.973V47.9999H542.973V35.9999ZM530.973 35.9999H542.973V47.9999H530.973V35.9999ZM554.973 35.9999H566.973V47.9999H554.973V35.9999ZM554.973 47.9999H566.973V59.9999H554.973V47.9999ZM554.973 95.9999H566.973V108H554.973V95.9999ZM542.973 95.9999H554.973V108H542.973V95.9999ZM542.973 47.9999H554.973V59.9999H542.973V47.9999ZM530.973 95.9999H542.973V108H530.973V95.9999ZM542.973 108H554.973V120H542.973V108ZM530.973 108H542.973V120H530.973V108ZM518.973 108H530.973V120H518.973V108ZM506.973 108H518.973V120H506.973V108ZM494.973 108H506.973V120H494.973V108ZM494.973 95.9999H506.973V108H494.973V95.9999ZM506.973 95.9999H518.973V108H506.973V95.9999ZM494.973 83.9999H506.973V95.9999H494.973V83.9999ZM482.973 95.9999H494.973V108H482.973V95.9999ZM482.973 83.9999H494.973V95.9999H482.973V83.9999ZM482.973 71.9999H494.973V83.9999H482.973V71.9999ZM482.973 59.9999H494.973V71.9999H482.973V59.9999ZM482.973 47.9999H494.973V59.9999H482.973V47.9999ZM482.973 35.9999H494.973V47.9999H482.973V35.9999ZM494.973 47.9999H506.973V59.9999H494.973V47.9999ZM494.973 59.9999H506.973V71.9999H494.973V59.9999ZM494.973 71.9999H506.973V83.9999H494.973V71.9999ZM518.973 95.9999H530.973V108H518.973V95.9999ZM518.973 35.9999H530.973V47.9999H518.973V35.9999ZM542.973 59.9999H554.973V71.9999H542.973V59.9999ZM554.973 59.9999H566.973V71.9999H554.973V59.9999ZM506.973 71.9999H518.973V83.9999H506.973V71.9999ZM518.973 71.9999H530.973V83.9999H518.973V71.9999ZM530.973 71.9999H542.973V83.9999H530.973V71.9999ZM542.973 71.9999H554.973V83.9999H542.973V71.9999ZM554.973 71.9999H566.973V83.9999H554.973V71.9999ZM530.973 59.9999H542.973V71.9999H530.973V59.9999ZM518.973 59.9999H530.973V71.9999H518.973V59.9999ZM506.973 59.9999H518.973V71.9999H506.973V59.9999Z" fill="white"/>
<path d="M351.066 35.9999H363.066V47.9999H351.066V35.9999ZM351.066 23.9999H363.066V35.9999H351.066V23.9999ZM363.066 23.9999H375.066V35.9999H363.066V23.9999ZM363.066 35.9999H375.066V47.9999H363.066V35.9999ZM363.066 47.9999H375.066V59.9999H363.066V47.9999ZM363.066 59.9999H375.066V71.9999H363.066V59.9999ZM363.066 71.9999H375.066V83.9999H363.066V71.9999ZM351.066 71.9999H363.066V83.9999H351.066V71.9999ZM351.066 59.9999H363.066V71.9999H351.066V59.9999ZM351.066 47.9999H363.066V59.9999H351.066V47.9999ZM351.066 83.9999H363.066V95.9999H351.066V83.9999ZM363.066 83.9999H375.066V95.9999H363.066V83.9999ZM363.066 95.9999H375.066V108H363.066V95.9999ZM363.066 108H375.066V120H363.066V108ZM351.066 108H363.066V120H351.066V108ZM351.066 95.9999H363.066V108H351.066V95.9999ZM399.066 108H411.066V120H399.066V108ZM411.066 108H423.066V120H411.066V108ZM411.066 95.9999H423.066V108H411.066V95.9999ZM411.066 83.9999H423.066V95.9999H411.066V83.9999ZM411.066 71.9999H423.066V83.9999H411.066V71.9999ZM411.066 59.9999H423.066V71.9999H411.066V59.9999ZM411.066 47.9999H423.066V59.9999H411.066V47.9999ZM411.066 35.9999H423.066V47.9999H411.066V35.9999ZM399.066 59.9999H411.066V71.9999H399.066V59.9999ZM399.066 71.9999H411.066V83.9999H399.066V71.9999ZM399.066 83.9999H411.066V95.9999H399.066V83.9999ZM399.066 95.9999H411.066V108H399.066V95.9999ZM399.066 47.9999H411.066V59.9999H399.066V47.9999ZM375.066 35.9999H387.066V47.9999H375.066V35.9999ZM387.066 35.9999H399.066V47.9999H387.066V35.9999ZM399.066 23.9999H411.066V35.9999H399.066V23.9999ZM399.066 35.9999H411.066V47.9999H399.066V35.9999ZM387.066 23.9999H399.066V35.9999H387.066V23.9999ZM447.066 108H459.066V120H447.066V108ZM459.066 108H471.066V120H459.066V108ZM459.066 95.9999H471.066V108H459.066V95.9999ZM459.066 83.9999H471.066V95.9999H459.066V83.9999ZM459.066 71.9999H471.066V83.9999H459.066V71.9999ZM459.066 59.9999H471.066V71.9999H459.066V59.9999ZM459.066 47.9999H471.066V59.9999H459.066V47.9999ZM459.066 35.9999H471.066V47.9999H459.066V35.9999ZM447.066 59.9999H459.066V71.9999H447.066V59.9999ZM447.066 71.9999H459.066V83.9999H447.066V71.9999ZM447.066 83.9999H459.066V95.9999H447.066V83.9999ZM447.066 95.9999H459.066V108H447.066V95.9999ZM447.066 47.9999H459.066V59.9999H447.066V47.9999ZM423.066 35.9999H435.066V47.9999H423.066V35.9999ZM435.066 35.9999H447.066V47.9999H435.066V35.9999ZM447.066 23.9999H459.066V35.9999H447.066V23.9999ZM447.066 35.9999H459.066V47.9999H447.066V35.9999ZM435.066 23.9999H447.066V35.9999H435.066V23.9999Z" fill="white"/>
<path d="M327.035 120H315.035V108H327.035V120ZM327.035 108H315.035V95.9999H327.035V108ZM315.035 108H303.035V95.9999H315.035V108ZM303.035 120H291.035V108H303.035V120ZM291.035 120H279.035V108H291.035V120ZM279.035 120H267.035V108H279.035V120ZM279.035 108H267.035V95.9999H279.035V108ZM291.035 108H279.035V95.9999H291.035V108ZM267.035 108H255.035V95.9999H267.035V108ZM267.035 95.9999H255.035V83.9999H267.035V95.9999ZM267.035 47.9999H255.035V35.9999H267.035V47.9999ZM279.035 47.9999H267.035V35.9999H279.035V47.9999ZM279.035 95.9999H267.035V83.9999H279.035V95.9999ZM291.035 47.9999H279.035V35.9999H291.035V47.9999ZM279.035 35.9999H267.035V23.9999H279.035V35.9999ZM291.035 35.9999H279.035V23.9999H291.035V35.9999ZM303.035 35.9999H291.035V23.9999H303.035V35.9999ZM315.035 35.9999H303.035V23.9999H315.035V35.9999ZM327.035 35.9999H315.035V23.9999H327.035V35.9999ZM327.035 47.9999H315.035V35.9999H327.035V47.9999ZM315.035 47.9999H303.035V35.9999H315.035V47.9999ZM327.035 59.9999H315.035V47.9999H327.035V59.9999ZM339.035 47.9999H327.035V35.9999H339.035V47.9999ZM339.035 59.9999H327.035V47.9999H339.035V59.9999ZM339.035 71.9999H327.035V59.9999H339.035V71.9999ZM339.035 83.9999H327.035V71.9999H339.035V83.9999ZM339.035 95.9999H327.035V83.9999H339.035V95.9999ZM339.035 108H327.035V95.9999H339.035V108ZM327.035 95.9999H315.035V83.9999H327.035V95.9999ZM327.035 83.9999H315.035V71.9999H327.035V83.9999ZM327.035 71.9999H315.035V59.9999H327.035V71.9999ZM303.035 47.9999H291.035V35.9999H303.035V47.9999ZM303.035 108H291.035V95.9999H303.035V108ZM327.035 108H339.035V120H327.035V108ZM303.035 59.9999H315.035V71.9999H303.035V59.9999ZM291.035 59.9999H303.035V71.9999H291.035V59.9999ZM279.035 59.9999H291.035V71.9999H279.035V59.9999ZM267.035 59.9999H279.035V71.9999H267.035V59.9999ZM255.035 71.9999H267.035V83.9999H255.035V71.9999ZM267.035 71.9999H279.035V83.9999H267.035V71.9999ZM303.035 71.9999H315.035V83.9999H303.035V71.9999ZM291.035 71.9999H303.035V83.9999H291.035V71.9999ZM279.035 71.9999H291.035V83.9999H279.035V71.9999Z" fill="white"/>
<path d="M183.004 0H195.004V12H183.004V0ZM171.004 0H183.004V12H171.004V0ZM171.004 12H183.004V24H171.004V12ZM183.004 12H195.004V24H183.004V12ZM195.004 12H207.004V24H195.004V12ZM195.004 0H207.004V12H195.004V0ZM207.004 0H219.004V12H207.004V0ZM219.004 0H231.004V12H219.004V0ZM219.004 12H231.004V24H219.004V12ZM207.004 12H219.004V24H207.004V12ZM219.004 24H231.004V36H219.004V24ZM231.004 12H243.004V24H231.004V12ZM231.004 24H243.004V36H231.004V24ZM231.004 84H243.004V96H231.004V84ZM231.004 96H243.004V108H231.004V96ZM219.004 96H231.004V108H219.004V96ZM219.004 84H231.004V96H219.004V84ZM207.004 96H219.004V108H207.004V96ZM219.004 108H231.004V120H219.004V108ZM207.004 108H219.004V120H207.004V108ZM195.004 108H207.004V120H195.004V108ZM195.004 96H207.004V108H195.004V96ZM183.004 108H195.004V120H183.004V108ZM171.004 108H183.004V120H171.004V108ZM171.004 96H183.004V108H171.004V96ZM183.004 96H195.004V108H183.004V96ZM183.004 84H195.004V96H183.004V84ZM171.004 84H183.004V96H171.004V84ZM159.004 96H171.004V108H159.004V96ZM159.004 84H171.004V96H159.004V84ZM159.004 72H171.004V84H159.004V72ZM159.004 60H171.004V72H159.004V60ZM159.004 48H171.004V60H159.004V48ZM159.004 36H171.004V48H159.004V36ZM159.004 24H171.004V36H159.004V24ZM171.004 24H183.004V36H171.004V24ZM159.004 12H171.004V24H159.004V12ZM183.004 24H195.004V36H183.004V24ZM171.004 36H183.004V48H171.004V36ZM171.004 48H183.004V60H171.004V48ZM171.004 60H183.004V72H171.004V60ZM171.004 72H183.004V84H171.004V72ZM231.004 72H243.004V84H231.004V72ZM219.004 72H231.004V84H219.004V72ZM219.004 60H231.004V72H219.004V60ZM231.004 60H243.004V72H231.004V60ZM231.004 48H243.004V60H231.004V48ZM219.004 48H231.004V60H219.004V48ZM207.004 48H219.004V60H207.004V48ZM195.004 48H207.004V60H195.004V48ZM195.004 60H207.004V72H195.004V60ZM207.004 60H219.004V72H207.004V60Z" fill="white"/>
<path d="M90.4375 30.1692V18.1692H102.438V30.1692H90.4375Z" fill="white"/>
<path d="M102.438 18.1692V6.16919H114.438V18.1692H102.438Z" fill="white"/>
<path d="M90.4375 66.1692V54.1692H114.438V66.1692H90.4375Z" fill="white"/>
<path d="M90.4375 102.169V90.1692H102.438V102.169H90.4375Z" fill="white"/>
<path d="M102.438 114.169V102.169H114.438V114.169H102.438Z" fill="white"/>
<path d="M30.4375 30.1693H42.4375V42.1693H30.4375V30.1693Z" fill="white"/>
<path d="M66.4375 42.1687V6.1687H54.4375V18.1687H42.4375V30.1687H54.4375V90.1687H42.4375V102.169H54.4375V114.169H66.4375V78.1686H78.4375V42.1687H66.4375Z" fill="white"/>
<path d="M18.4375 66.1687V54.1686H30.4372V42.1687H6.4375V78.1687H18.4372H30.4372V66.1687H18.4375Z" fill="white"/>
<path d="M30.4375 78.1693H42.4375V90.1693H30.4375V78.1693Z" fill="white"/>
</svg>
