<svg width="2033" height="170" viewBox="0 0 2033 170" fill="none" xmlns="http://www.w3.org/2000/svg">
<path d="M1963.76 168.047H1933.29V84.0234C1933.29 80.0391 1932.23 77.0312 1930.12 75C1928.02 72.8906 1924.89 71.8359 1920.75 71.8359H1881.14V168.047H1850.67V56.4844C1850.67 54.375 1851.06 52.4219 1851.84 50.625C1852.62 48.75 1853.72 47.1484 1855.12 45.8203C1856.53 44.4141 1858.17 43.3203 1860.05 42.5391C1861.92 41.7578 1863.91 41.3672 1866.02 41.3672H1920.98C1925.2 41.3672 1929.73 42.1094 1934.58 43.5938C1939.42 45.0781 1944.03 47.4609 1948.41 50.7422V41.3672H1989.66C1992.55 41.3672 1995.59 41.7188 1998.8 42.4219C2002 43.0469 2005.16 44.0625 2008.29 45.4688C2011.49 46.875 2014.54 48.7109 2017.43 50.9766C2020.32 53.1641 2022.86 55.8594 2025.05 59.0625C2027.23 62.1875 2028.99 65.8203 2030.32 69.9609C2031.65 74.1016 2032.31 78.7891 2032.31 84.0234V168.047H2001.84V84.0234C2001.84 80.0391 2000.83 77.0312 1998.8 75C1996.84 72.8906 1993.8 71.8359 1989.66 71.8359H1962.23C1963.25 75.5859 1963.76 79.6484 1963.76 84.0234V168.047Z" fill="white"/>
<path d="M1824.66 126.094C1824.66 130.312 1823.91 134.883 1822.43 139.805C1820.95 144.648 1818.52 149.18 1815.16 153.398C1811.88 157.539 1807.55 161.016 1802.16 163.828C1796.84 166.641 1790.36 168.047 1782.7 168.047H1727.74C1723.52 168.047 1718.95 167.305 1714.03 165.82C1709.19 164.336 1704.66 161.953 1700.44 158.672C1696.3 155.312 1692.82 150.977 1690.01 145.664C1687.2 140.273 1685.79 133.75 1685.79 126.094C1685.79 121.875 1686.53 117.305 1688.02 112.383C1689.5 107.461 1691.88 102.93 1695.16 98.7891C1698.52 94.5703 1702.86 91.0547 1708.17 88.2422C1713.56 85.4297 1720.09 84.0234 1727.74 84.0234H1782.7V113.086H1727.74C1723.6 113.086 1720.4 114.375 1718.13 116.953C1715.87 119.453 1714.73 122.578 1714.73 126.328C1714.73 130.312 1716.02 133.438 1718.6 135.703C1721.26 137.891 1724.38 138.984 1727.98 138.984H1782.7C1786.84 138.984 1790.05 137.734 1792.31 135.234C1794.58 132.734 1795.71 129.609 1795.71 125.859V83.3203C1795.71 79.3359 1794.46 76.1719 1791.96 73.8281C1789.54 71.4844 1786.45 70.3125 1782.7 70.3125H1715.79V41.3672H1782.7C1786.92 41.3672 1791.45 42.1094 1796.3 43.5938C1801.22 45.0781 1805.75 47.5 1809.89 50.8594C1814.11 54.1406 1817.62 58.4766 1820.44 63.8672C1823.25 69.1797 1824.66 75.6641 1824.66 83.3203V126.094Z" fill="white"/>
<path d="M1674.3 83.3203C1674.3 87.5391 1673.56 92.1094 1672.08 97.0312C1670.59 101.875 1668.17 106.406 1664.81 110.625C1661.53 114.766 1657.2 118.242 1651.8 121.055C1646.49 123.867 1640.01 125.273 1632.35 125.273H1577.39V96.3281H1632.35C1636.49 96.3281 1639.7 95.0781 1641.96 92.5781C1644.23 90 1645.36 86.8359 1645.36 83.0859C1645.36 79.1016 1644.07 75.9766 1641.49 73.7109C1638.99 71.4453 1635.95 70.3125 1632.35 70.3125H1577.39C1573.25 70.3125 1570.05 71.6016 1567.78 74.1797C1565.52 76.6797 1564.38 79.8047 1564.38 83.5547V126.094C1564.38 130.156 1565.63 133.32 1568.13 135.586C1570.71 137.852 1573.88 138.984 1577.62 138.984H1632.35V168.047H1577.39C1573.17 168.047 1568.6 167.305 1563.68 165.82C1558.84 164.336 1554.3 161.953 1550.09 158.672C1545.95 155.312 1542.47 150.977 1539.66 145.664C1536.84 140.273 1535.44 133.75 1535.44 126.094V83.3203C1535.44 79.1016 1536.18 74.5703 1537.66 69.7266C1539.15 64.8047 1541.53 60.2734 1544.81 56.1328C1548.17 51.9141 1552.51 48.3984 1557.82 45.5859C1563.21 42.7734 1569.73 41.3672 1577.39 41.3672H1632.35C1636.57 41.3672 1641.1 42.1094 1645.95 43.5938C1650.87 45.0781 1655.4 47.5 1659.54 50.8594C1663.76 54.1406 1667.27 58.4766 1670.09 63.8672C1672.9 69.1797 1674.3 75.6641 1674.3 83.3203Z" fill="white"/>
<path d="M1518.33 71.8359H1449.77C1445.63 71.8359 1442.51 72.8906 1440.4 75C1438.29 77.0312 1437.23 80.0391 1437.23 84.0234V168.047H1406.77V84.0234C1406.77 78.7891 1407.43 74.1016 1408.76 69.9609C1410.09 65.8203 1411.84 62.1875 1414.03 59.0625C1416.3 55.8594 1418.88 53.1641 1421.77 50.9766C1424.66 48.7109 1427.66 46.875 1430.79 45.4688C1433.99 44.0625 1437.2 43.0469 1440.4 42.4219C1443.68 41.7188 1446.73 41.3672 1449.54 41.3672H1518.33V71.8359Z" fill="white"/>
<path d="M1382.27 168.047H1299.66C1295.44 168.047 1290.83 167.305 1285.83 165.82C1280.83 164.336 1276.18 161.914 1271.88 158.555C1267.66 155.117 1264.11 150.703 1261.22 145.312C1258.41 139.844 1257 133.164 1257 125.273V84.0234C1257 81.1328 1257.31 78.0859 1257.94 74.8828C1258.64 71.6797 1259.7 68.5156 1261.1 65.3906C1262.51 62.1875 1264.3 59.1406 1266.49 56.25C1268.76 53.3594 1271.45 50.8203 1274.58 48.6328C1277.78 46.4453 1281.45 44.6875 1285.59 43.3594C1289.73 42.0312 1294.42 41.3672 1299.66 41.3672H1382.27V71.8359H1299.66C1295.67 71.8359 1292.62 72.8516 1290.52 74.8828C1288.48 76.9141 1287.47 80.0391 1287.47 84.2578V125.273C1287.47 129.258 1288.52 132.305 1290.63 134.414C1292.74 136.523 1295.83 137.578 1299.89 137.578H1382.27V168.047Z" fill="white"/>
<path d="M1237.66 118.594C1237.66 124.609 1236.88 130.039 1235.32 134.883C1233.84 139.648 1231.84 143.867 1229.34 147.539C1226.84 151.211 1223.91 154.336 1220.55 156.914C1217.2 159.492 1213.72 161.602 1210.12 163.242C1206.53 164.883 1202.86 166.094 1199.11 166.875C1195.44 167.656 1191.96 168.047 1188.68 168.047H1071.14V137.578H1188.68C1194.54 137.578 1199.07 135.859 1202.27 132.422C1205.55 128.984 1207.2 124.375 1207.2 118.594C1207.2 115.781 1206.77 113.203 1205.91 110.859C1205.05 108.516 1203.8 106.484 1202.16 104.766C1200.59 103.047 1198.64 101.719 1196.3 100.781C1194.03 99.8438 1191.49 99.375 1188.68 99.375H1118.6C1113.68 99.375 1108.37 98.5156 1102.66 96.7969C1096.96 95 1091.65 92.1484 1086.73 88.2422C1081.88 84.3359 1077.82 79.2188 1074.54 72.8906C1071.34 66.5625 1069.73 58.8281 1069.73 49.6875C1069.73 40.5469 1071.34 32.8516 1074.54 26.6016C1077.82 20.2734 1081.88 15.1562 1086.73 11.25C1091.65 7.26562 1096.96 4.41406 1102.66 2.69531C1108.37 0.898438 1113.68 0 1118.6 0H1222.31V30.4688H1118.6C1112.82 30.4688 1108.29 32.2266 1105.01 35.7422C1101.8 39.2578 1100.2 43.9062 1100.2 49.6875C1100.2 55.5469 1101.8 60.1953 1105.01 63.6328C1108.29 66.9922 1112.82 68.6719 1118.6 68.6719H1188.68H1188.91C1192.2 68.75 1195.67 69.2188 1199.34 70.0781C1203.02 70.8594 1206.65 72.1094 1210.24 73.8281C1213.91 75.5469 1217.39 77.7344 1220.67 80.3906C1223.95 82.9688 1226.84 86.0938 1229.34 89.7656C1231.92 93.4375 1233.95 97.6562 1235.44 102.422C1236.92 107.188 1237.66 112.578 1237.66 118.594Z" fill="white"/>
<path d="M1052.62 71.8359H984.07C979.93 71.8359 976.805 72.8906 974.695 75C972.586 77.0312 971.531 80.0391 971.531 84.0234V168.047H941.062V84.0234C941.062 78.7891 941.727 74.1016 943.055 69.9609C944.383 65.8203 946.141 62.1875 948.328 59.0625C950.594 55.8594 953.172 53.1641 956.062 50.9766C958.953 48.7109 961.961 46.875 965.086 45.4688C968.289 44.0625 971.492 43.0469 974.695 42.4219C977.977 41.7188 981.023 41.3672 983.836 41.3672H1052.62V71.8359Z" fill="white"/>
<path d="M921.258 83.3203C921.258 87.5391 920.516 92.1094 919.031 97.0312C917.547 101.875 915.125 106.406 911.766 110.625C908.484 114.766 904.148 118.242 898.758 121.055C893.445 123.867 886.961 125.273 879.305 125.273H824.344V96.3281H879.305C883.445 96.3281 886.648 95.0781 888.914 92.5781C891.18 90 892.312 86.8359 892.312 83.0859C892.312 79.1016 891.023 75.9766 888.445 73.7109C885.945 71.4453 882.898 70.3125 879.305 70.3125H824.344C820.203 70.3125 817 71.6016 814.734 74.1797C812.469 76.6797 811.336 79.8047 811.336 83.5547V126.094C811.336 130.156 812.586 133.32 815.086 135.586C817.664 137.852 820.828 138.984 824.578 138.984H879.305V168.047H824.344C820.125 168.047 815.555 167.305 810.633 165.82C805.789 164.336 801.258 161.953 797.039 158.672C792.898 155.312 789.422 150.977 786.609 145.664C783.797 140.273 782.391 133.75 782.391 126.094V83.3203C782.391 79.1016 783.133 74.5703 784.617 69.7266C786.102 64.8047 788.484 60.2734 791.766 56.1328C795.125 51.9141 799.461 48.3984 804.773 45.5859C810.164 42.7734 816.688 41.3672 824.344 41.3672H879.305C883.523 41.3672 888.055 42.1094 892.898 43.5938C897.82 45.0781 902.352 47.5 906.492 50.8594C910.711 54.1406 914.227 58.4766 917.039 63.8672C919.852 69.1797 921.258 75.6641 921.258 83.3203Z" fill="white"/>
<path d="M688.289 168.047H657.82V84.0234C657.82 80.0391 656.766 77.0312 654.656 75C652.547 72.8906 649.422 71.8359 645.281 71.8359H605.672V168.047H575.203V56.4844C575.203 54.375 575.594 52.4219 576.375 50.625C577.156 48.75 578.25 47.1484 579.656 45.8203C581.062 44.4141 582.703 43.3203 584.578 42.5391C586.453 41.7578 588.445 41.3672 590.555 41.3672H645.516C649.734 41.3672 654.266 42.1094 659.109 43.5938C663.953 45.0781 668.562 47.4609 672.938 50.7422V41.3672H714.188C717.078 41.3672 720.125 41.7188 723.328 42.4219C726.531 43.0469 729.695 44.0625 732.82 45.4688C736.023 46.875 739.07 48.7109 741.961 50.9766C744.852 53.1641 747.391 55.8594 749.578 59.0625C751.766 62.1875 753.523 65.8203 754.852 69.9609C756.18 74.1016 756.844 78.7891 756.844 84.0234V168.047H726.375V84.0234C726.375 80.0391 725.359 77.0312 723.328 75C721.375 72.8906 718.328 71.8359 714.188 71.8359H686.766C687.781 75.5859 688.289 79.6484 688.289 84.0234V168.047Z" fill="white"/>
<path d="M549.188 126.094C549.188 130.312 548.445 134.883 546.961 139.805C545.477 144.648 543.055 149.18 539.695 153.398C536.414 157.539 532.078 161.016 526.688 163.828C521.375 166.641 514.891 168.047 507.234 168.047H452.273C448.055 168.047 443.484 167.305 438.562 165.82C433.719 164.336 429.188 161.953 424.969 158.672C420.828 155.312 417.352 150.977 414.539 145.664C411.727 140.273 410.32 133.75 410.32 126.094C410.32 121.875 411.062 117.305 412.547 112.383C414.031 107.461 416.414 102.93 419.695 98.7891C423.055 94.5703 427.391 91.0547 432.703 88.2422C438.094 85.4297 444.617 84.0234 452.273 84.0234H507.234V113.086H452.273C448.133 113.086 444.93 114.375 442.664 116.953C440.398 119.453 439.266 122.578 439.266 126.328C439.266 130.312 440.555 133.438 443.133 135.703C445.789 137.891 448.914 138.984 452.508 138.984H507.234C511.375 138.984 514.578 137.734 516.844 135.234C519.109 132.734 520.242 129.609 520.242 125.859V83.3203C520.242 79.3359 518.992 76.1719 516.492 73.8281C514.07 71.4844 510.984 70.3125 507.234 70.3125H440.32V41.3672H507.234C511.453 41.3672 515.984 42.1094 520.828 43.5938C525.75 45.0781 530.281 47.5 534.422 50.8594C538.641 54.1406 542.156 58.4766 544.969 63.8672C547.781 69.1797 549.188 75.6641 549.188 83.3203V126.094Z" fill="white"/>
<path d="M390.047 152.695C390.047 154.883 389.656 156.914 388.875 158.789C388.094 160.664 387 162.305 385.594 163.711C384.266 165.039 382.664 166.094 380.789 166.875C378.914 167.656 376.883 168.047 374.695 168.047H264.773C261.961 168.047 258.914 167.734 255.633 167.109C252.43 166.406 249.227 165.352 246.023 163.945C242.898 162.539 239.891 160.742 237 158.555C234.109 156.289 231.531 153.594 229.266 150.469C227.078 147.266 225.32 143.594 223.992 139.453C222.664 135.234 222 130.508 222 125.273V42.7734C222 39.9609 222.312 36.9531 222.938 33.75C223.641 30.4688 224.695 27.2656 226.102 24.1406C227.508 20.9375 229.344 17.8906 231.609 15C233.875 12.1094 236.57 9.57031 239.695 7.38281C242.898 5.11719 246.57 3.32031 250.711 1.99219C254.852 0.664062 259.539 0 264.773 0H388.641V30.4688H264.773C260.789 30.4688 257.742 31.5234 255.633 33.6328C253.523 35.7422 252.469 38.8672 252.469 43.0078V125.273C252.469 129.18 253.523 132.227 255.633 134.414C257.82 136.523 260.867 137.578 264.773 137.578H359.578V99.375H278.484V68.6719H374.695C376.883 68.6719 378.914 69.1016 380.789 69.9609C382.664 70.7422 384.266 71.8359 385.594 73.2422C387 74.6484 388.094 76.2891 388.875 78.1641C389.656 79.9609 390.047 81.9141 390.047 84.0234V152.695Z" fill="white"/>
<g clip-path="url(#clip0_778_256)">
<path d="M136.408 28.8195C132.075 28.8195 128.551 32.352 128.551 36.6944V133.358C128.947 143.808 143.901 143.771 144.294 133.358V36.6944C144.294 32.3524 140.757 28.8195 136.408 28.8195Z" fill="white"/>
<path d="M85.0001 28.8195C80.6511 28.8195 77.1133 32.352 77.1133 36.6944V133.358C77.5107 143.794 92.4934 143.785 92.8872 133.358V36.6944C92.8872 32.3524 89.3491 28.8195 85.0001 28.8195Z" fill="white"/>
<path d="M110.704 57.6135C106.372 57.6135 102.848 61.146 102.848 65.4884V104.564C103.244 115.015 118.197 114.976 118.591 104.564V65.4884C118.591 61.146 115.053 57.6135 110.704 57.6135Z" fill="white"/>
<path d="M162.114 72.0109C157.782 72.0109 154.258 75.5434 154.258 79.8857V90.1675C154.654 100.618 169.607 100.58 170.001 90.1675V79.8857C170.001 75.5434 166.463 72.0109 162.114 72.0109Z" fill="white"/>
<path d="M7.88713 72.0109C3.53815 72.0109 0 75.5434 0 79.8854V90.1671C0.397777 100.587 15.3509 100.61 15.7434 90.1671V79.8854C15.7434 75.5434 12.2192 72.0109 7.88713 72.0109Z" fill="white"/>
<path d="M33.5903 43.2166C29.2413 43.2166 25.7031 46.7491 25.7031 51.0914V118.961C26.1009 129.382 41.0544 129.404 41.4472 118.961V51.0914C41.4472 46.7491 37.9226 43.2166 33.5903 43.2166Z" fill="white"/>
<path d="M59.297 0.0255737C54.948 0.0255737 51.4102 3.55808 51.4102 7.90042V162.152C51.8076 172.572 66.7607 172.595 67.1535 162.152V7.90042C67.1535 3.55808 63.629 0.0255737 59.297 0.0255737Z" fill="white"/>
</g>
<defs>
<clipPath id="clip0_778_256">
<rect width="170" height="170" fill="white"/>
</clipPath>
</defs>
</svg>
